<?xml version="1.0" encoding="utf-8"?>
<!-- Generator: Adobe Illustrator 22.0.1, SVG Export Plug-In . SVG Version: 6.00 Build 0)  -->
<svg version="1.1" xmlns="http://www.w3.org/2000/svg" xmlns:xlink="http://www.w3.org/1999/xlink" x="0px" y="0px"
	 viewBox="0 0 32 32" style="enable-background:new 0 0 32 32;" xml:space="preserve">
<style type="text/css">
	.st0{display:none;}
	.st1{display:inline;fill:#E6434F;}
	.st2{display:inline;}
	.st3{fill:none;stroke:#E6434F;stroke-width:2;stroke-linecap:round;stroke-linejoin:round;stroke-miterlimit:10;}
	.st4{display:inline;fill:none;stroke:#E6434F;stroke-width:2;stroke-linecap:round;stroke-linejoin:round;stroke-miterlimit:10;}
	.st5{display:inline;fill:none;stroke:#E6434F;stroke-width:2;stroke-linejoin:round;stroke-miterlimit:10;}
	.st6{display:inline;fill:none;stroke:#E6434F;stroke-width:2;stroke-linecap:square;stroke-linejoin:round;stroke-miterlimit:10;}
	.st7{display:inline;fill:none;stroke:#E6434F;stroke-width:2;stroke-miterlimit:10;}
	.st8{fill:none;stroke:#E6434F;stroke-width:2;stroke-miterlimit:10;}
	.st9{fill:#E6434F;}
	.st10{display:inline;fill:none;stroke:#E6434F;stroke-width:2;stroke-linecap:square;stroke-miterlimit:10;}
	.st11{display:inline;fill:#FFFFFF;stroke:#E6434F;stroke-width:2;stroke-miterlimit:10;}
</style>
<g id="Guides">
</g>
<g id="Layer_52" class="st0">
	<path class="st1" d="M32,0v32H0V0H32 M34-2h-2H0h-2v2v32v2h2h32h2v-2V0V-2L34-2z"/>
</g>
<g id="Marketing__x2F__Advertising__x2F__Pitching_copy" class="st0">
	<g class="st2">
		<ellipse transform="matrix(0.7198 -0.6942 0.6942 0.7198 -6.5052 15.1111)" class="st3" cx="15.5" cy="15.6" rx="2.3" ry="8.9"/>
		<line class="st3" x1="9.1" y1="9.5" x2="3" y2="28"/>
		<line class="st3" x1="21.4" y1="22.2" x2="3" y2="28"/>
	</g>
	<path class="st4" d="M20,11"/>
	<line class="st5" x1="22.1" y1="10.9" x2="27" y2="6"/>
	<line class="st5" x1="16" y1="7" x2="16" y2="1"/>
	<line class="st5" x1="25" y1="18" x2="31" y2="20"/>
</g>
<g id="Content__x2F__CV" class="st0">
	<rect x="8" y="5" class="st4" width="16" height="22"/>
	<line class="st6" x1="16" y1="9" x2="20" y2="9"/>
	<line class="st6" x1="16" y1="13" x2="20" y2="13"/>
	<line class="st6" x1="16" y1="17" x2="20" y2="17"/>
	<rect x="11" y="8" class="st1" width="2" height="2"/>
	<rect x="11" y="12" class="st1" width="2" height="2"/>
	<rect x="11" y="16" class="st1" width="2" height="2"/>
</g>
<g id="Sharing__x2F__Distribute" class="st0">
	<polyline class="st7" points="20,5 27,5 27,12 	"/>
	<polyline class="st6" points="27,17 27,27 5,27 5,5 15,5 	"/>
	<line class="st6" x1="16" y1="16" x2="26.6" y2="5.4"/>
</g>
<g id="Download" class="st0">
	<polyline class="st5" points="21,5 27,5 27,27 5,27 5,5 11,5 	"/>
	<polyline class="st7" points="21.6,14.6 16,20.3 10.4,14.6 	"/>
	<line class="st7" x1="16" y1="2" x2="16" y2="19.6"/>
</g>
<g id="Application__x2F__Settings" class="st0">
	<path class="st4" d="M15.8,27.4c-0.4,0-0.7,0-1.1-0.1L12.3,30c-1.3-0.3-2.6-0.9-3.8-1.6l0.2-3.6c-0.6-0.5-1.1-1-1.6-1.6l-3.6,0.2
		c-0.7-1.2-1.2-2.5-1.6-3.8l2.7-2.4c0-0.4-0.1-0.7-0.1-1.1c0-0.4,0-0.7,0.1-1.1L2,12.4c0.3-1.4,0.9-2.7,1.6-3.8l3.6,0.2
		c0.5-0.6,1-1.1,1.6-1.6L8.5,3.6c1.2-0.7,2.4-1.2,3.8-1.6l2.4,2.7c0.4,0,0.7-0.1,1.1-0.1h0.5c0.4,0,0.7,0,1.1,0.1L19.7,2
		c1.3,0.3,2.6,0.9,3.8,1.6l-0.2,3.6c0.6,0.5,1.1,1,1.6,1.6l3.6-0.2c0.7,1.2,1.2,2.5,1.6,3.8l-2.7,2.4c0,0.4,0.1,0.7,0.1,1.1
		c0,0.4,0,0.7-0.1,1.1l2.7,2.4c-0.3,1.4-0.9,2.7-1.6,3.8l-3.6-0.2c-0.5,0.6-1,1.1-1.6,1.6l0.2,3.6c-1.2,0.7-2.4,1.2-3.8,1.6
		l-2.4-2.7c-0.4,0-0.7,0.1-1.1,0.1H15.8z"/>
	<ellipse class="st4" cx="16" cy="16" rx="4.9" ry="5"/>
</g>
<g id="Job_Postings" class="st0">
	<g class="st2">
		<path class="st3" d="M6.2,12.1l13.7,13.7c2.9-2.9,2.7-8-1.5-12.2S9.1,9.1,6.2,12.1z"/>
		<polyline class="st3" points="10.8,18.2 3,29 13.8,21.2 		"/>
		<polyline class="st3" points="15.3,10.6 21.4,6 26,10.6 21.4,16.7 		"/>
		<path class="st3" d="M29.5,9.5l-7-7c-0.6-0.6-1.5-0.6-2.1,0l-0.2,0.2c-0.6,0.6-0.6,1.5,0,2.1l7,7c0.6,0.6,1.5,0.6,2.1,0l0.2-0.2
			C30.1,11,30.1,10.1,29.5,9.5z"/>
	</g>
</g>
<g id="Build" class="st0">
	<g class="st2">
		<path class="st3" d="M18.4,10.5c0,1.3-1.1,2.4-2.4,2.4V16h-3.1c0-1.3-1.1-2.4-2.4-2.4S8.1,14.7,8.1,16H5V5h11v3.1
			C17.3,8.1,18.4,9.2,18.4,10.5z"/>
		<path class="st3" d="M13.6,21.5c0,1.3,1.1,2.4,2.4,2.4V27H5V16h3.1c0-1.3,1.1-2.4,2.4-2.4s2.4,1.1,2.4,2.4H16v3.1
			C14.7,19.1,13.6,20.2,13.6,21.5z"/>
		<path class="st3" d="M27,16v11H16v-3.1c-1.3,0-2.4-1.1-2.4-2.4c0-1.3,1.1-2.4,2.4-2.4V16h3.1c0,1.3,1.1,2.4,2.4,2.4
			s2.4-1.1,2.4-2.4H27z"/>
	</g>
</g>
<g id="Page__x2F__File" class="st0">
	<polygon class="st4" points="24,11 24,27 8,27 8,5 17,5 	"/>
	<path class="st4" d="M24,12.9"/>
	<polyline class="st7" points="17,5 17,11 24,11 	"/>
</g>
<g id="Bright__x2F__Power" class="st0">
	<circle class="st4" cx="16" cy="16" r="7"/>
	<line class="st5" x1="9" y1="9" x2="5" y2="5"/>
	<line class="st5" x1="6" y1="16" x2="1" y2="16"/>
	<line class="st5" x1="9" y1="23" x2="5" y2="27"/>
	<line class="st5" x1="16" y1="26" x2="16" y2="31"/>
	<line class="st5" x1="23" y1="23" x2="27" y2="27"/>
	<line class="st5" x1="26" y1="16" x2="31" y2="16"/>
	<line class="st5" x1="23" y1="9" x2="27" y2="5"/>
	<line class="st5" x1="16" y1="6" x2="16" y2="1"/>
</g>
<g id="Idea__x2F__Create__x2F__Solution" class="st0">
	<path class="st4" d="M18,24c0-4,1-3.6,2.2-4.9c0,0,0,0,0,0l0.3-0.3c0,0,0,0,0,0l0,0c0.9-1,1.5-2.4,1.5-3.9c0-3.3-2.7-5.9-6-5.9
		s-6,2.6-6,5.9c0,1.5,0.5,2.8,1.5,3.9l0,0c0,0,0,0,0,0l0.3,0.3c0,0,0,0,0,0C13,20.4,14,20,14,24H18z"/>
	<line class="st5" x1="16" y1="6" x2="16" y2="2"/>
	<line class="st5" x1="9" y1="9" x2="6" y2="6"/>
	<line class="st5" x1="6" y1="16" x2="2" y2="16"/>
	<line class="st5" x1="9" y1="23" x2="6" y2="26"/>
	<line class="st5" x1="23" y1="9" x2="26" y2="6"/>
	<line class="st5" x1="26" y1="16" x2="30" y2="16"/>
	<line class="st5" x1="23" y1="23" x2="26" y2="26"/>
	<line class="st5" x1="14" y1="27" x2="18" y2="27"/>
	<line class="st5" x1="14" y1="30" x2="18" y2="30"/>
</g>
<g id="Upgrade__x2F__Upload" class="st0">
	<g class="st2">
		<polyline class="st8" points="11,15 16,10 21,15 		"/>
		<line class="st8" x1="16" y1="23" x2="16" y2="10.9"/>
	</g>
	<circle class="st4" cx="16" cy="16" r="12"/>
</g>
<g id="Super_Happy" class="st0">
	<circle class="st7" cx="16" cy="16" r="13"/>
	<path class="st7" d="M8,16c0,4.4,3.6,8,8,8s8-3.6,8-8"/>
	<rect x="23" y="12" class="st1" width="2" height="2"/>
	<rect x="7" y="12" class="st1" width="2" height="2"/>
	<circle class="st7" cx="16" cy="16" r="13"/>
	<path class="st7" d="M8,16c0,4.4,3.6,8,8,8s8-3.6,8-8"/>
	<rect x="23" y="12" class="st1" width="2" height="2"/>
	<rect x="7" y="12" class="st1" width="2" height="2"/>
	<line class="st7" x1="24" y1="17" x2="8" y2="17"/>
</g>
<g id="Happy__x2F__Easy" class="st0">
	<circle class="st7" cx="16" cy="16" r="13"/>
	<path class="st7" d="M8,16c0,4.4,3.6,8,8,8s8-3.6,8-8"/>
	<rect x="23" y="12" class="st1" width="2" height="2"/>
	<rect x="7" y="12" class="st1" width="2" height="2"/>
</g>
<g id="Neutral_Face" class="st0">
	<circle class="st7" cx="16" cy="16" r="13"/>
	<rect x="23" y="12" class="st1" width="2" height="2"/>
	<rect x="7" y="12" class="st1" width="2" height="2"/>
	<line class="st7" x1="25" y1="17" x2="7" y2="17"/>
</g>
<g id="Sad_Face" class="st0">
	<circle class="st7" cx="16" cy="16" r="13"/>
	<path class="st7" d="M24,22c0-4.4-3.6-8-8-8s-8,3.6-8,8"/>
	<rect x="23" y="12" class="st1" width="2" height="2"/>
	<rect x="7" y="12" class="st1" width="2" height="2"/>
</g>
<g id="Thumbs_Up" class="st0">
	<rect x="4" y="10.4" class="st4" width="5.5" height="13.8"/>
	<path class="st4" d="M28,11.2v12c0,1-0.8,1.8-1.8,1.8H14.9c-0.5,0-0.9-0.2-1.3-0.4l-4-2.3V11.2c0,0,6.4,0.9,6.5-7.3
		C16,3,16.7,2.1,17.6,2c1.1-0.1,2.1,0.7,2.1,1.8v5.5h6.5C27.2,9.4,28,10.2,28,11.2z"/>
</g>
<g id="Thumbs_Down" class="st0">
	<rect x="4" y="7.8" class="st4" width="5.5" height="13.8"/>
	<path class="st4" d="M28,20.9v-12c0-1-0.8-1.8-1.8-1.8H14.9c-0.5,0-0.9,0.2-1.3,0.4l-4,2.3v11.1c0,0,6.4-0.9,6.5,7.3
		c0,0.9,0.7,1.8,1.6,1.9c1.1,0.1,2.1-0.7,2.1-1.8v-5.5h6.5C27.2,22.7,28,21.9,28,20.9z"/>
</g>
<g id="Paper_Plane__x2F__Message">
	<polygon class="st3" points="29,5 4,12 21,29 	"/>
	<polyline class="st3" points="29,5 12,20 12,29 16,24 	"/>
</g>
<g id="Cursor" class="st0">
	<polygon class="st4" points="21.1,25.6 16.1,20.7 10.6,26.1 6.4,21.9 11.8,16.4 6.9,11.4 27,5.5 	"/>
</g>
<g id="Revenue__x2F__Finance__x5B_euro_x5D_" class="st0">
	<g class="st2">
		<path class="st9" d="M10.6,13.4h1c0.7-2.9,2.7-4.4,5.2-4.4c2,0,3.4,0.8,4.2,2.3l-2.1,1.3c-0.4-0.8-1.2-1.3-2.1-1.3
			c-1.3,0-2.3,0.6-2.7,2.1h4.1l-1,2.1h-3.4v1h4.4l-1,2.1H14c0.4,1.5,1.4,2.1,2.7,2.1c0.9,0,1.7-0.4,2.1-1.3l2.1,1.3
			c-0.8,1.4-2.2,2.3-4.2,2.3c-2.5,0-4.6-1.5-5.2-4.4h-2l1-2.1h0.8v-1H9.6L10.6,13.4z"/>
	</g>
	<circle class="st4" cx="16" cy="16" r="13"/>
</g>
<g id="Revenue__x2F__Finance__x5B_dollar_x5D_" class="st0">
	<circle class="st4" cx="16" cy="16" r="13"/>
	<g class="st2">
		<path class="st9" d="M17.8,13c-0.5-1-1-1.4-1.8-1.4c-0.7,0-1.2,0.5-1.2,1.2c0,2.3,5.5,2,5.5,5.8c0,2.1-1.2,3.5-3,3.9v1.6H15v-1.7
			c-1.8-0.4-3-1.9-3.3-3.5l1.9-1.2c0.4,1.4,1.2,2.6,2.6,2.6c1,0,1.7-0.5,1.7-1.7c0-2.1-5.4-1.7-5.4-5.8c0-1.6,1-3,2.5-3.4V7.8h2.3
			v1.7c1.1,0.3,2,1.1,2.5,2.2L17.8,13z"/>
	</g>
</g>
<g id="Revenue__x2F__Finance__x5B_sterling_x5D_" class="st0">
	<g class="st2">
		<path class="st9" d="M11.7,14.7h0.9c-0.2-0.4-0.3-0.9-0.3-1.4c0-2.2,1.6-3.9,4.1-3.9c2,0,3.4,1,4,2.6l-2,0.9
			c-0.4-0.9-1.1-1.3-2-1.3c-0.9,0-1.7,0.5-1.7,1.8c0,0.6,0.1,1,0.2,1.3h3.3v2.1h-2.7c0,0.2,0.1,0.4,0.1,0.7c0,1.5-0.7,2.3-1.6,3
			c0.5-0.3,1.2-0.6,1.9-0.6c0.9,0,1.2,0.6,2.1,0.6c0.5,0,0.9-0.2,1.4-1l1.7,1c-0.9,1.5-1.8,2.2-3.2,2.2c-1.4,0-1.7-0.7-2.9-0.7
			c-0.8,0-1.5,0.3-2.2,0.7l-1.3-1.4c1.1-0.9,2.1-1.9,2.1-3.3c0-0.4-0.1-0.8-0.2-1.1h-1.6V14.7z"/>
	</g>
	<circle class="st4" cx="16" cy="16" r="13"/>
</g>
<g id="Community__x2F__Talent" class="st0">
	<circle class="st4" cx="16" cy="8" r="3.5"/>
	<circle class="st4" cx="7.9" cy="14.9" r="3.5"/>
	<circle class="st4" cx="24.1" cy="14.9" r="3.5"/>
	<path class="st4" d="M16,26.5c0-4.5,3.4-8.1,7.5-8.1s7.5,3.6,7.5,8.1"/>
	<line class="st4" x1="8" y1="18.4" x2="8" y2="18.4"/>
	<path class="st4" d="M10.9,13.2c1.4-1.1,3.1-1.8,5.1-1.8s3.7,0.7,5.1,1.8"/>
	<line class="st4" x1="24" y1="18.4" x2="24" y2="18.4"/>
	<line class="st4" x1="31.1" y1="26.5" x2="16" y2="26.5"/>
	<path class="st4" d="M0.9,26.5c0-4.5,3.4-8.1,7.5-8.1S16,22,16,26.5"/>
	<line class="st4" x1="16" y1="26.5" x2="0.9" y2="26.5"/>
</g>
<g id="Tickets__x2F__Events" class="st0">
	<path class="st4" d="M16,3h-4v21h4c0-1.1,0.9-2,2-2s2,0.9,2,2h4V3h-4c0,1.1-0.9,2-2,2S16,4.1,16,3z"/>
	<path class="st4" d="M20,24v5h-4c0-1.1-0.9-2-2-2s-2,0.9-2,2H8V8h4"/>
	<line class="st5" x1="15" y1="9" x2="21" y2="9"/>
	<line class="st5" x1="15" y1="13" x2="21" y2="13"/>
	<line class="st5" x1="15" y1="17" x2="21" y2="17"/>
</g>
<g id="Grow" class="st0">
	<rect x="5" y="19.3" class="st4" width="7" height="7.7"/>
	<rect x="12" y="13" class="st4" width="7" height="14"/>
	<rect x="19" y="5" class="st4" width="7" height="22"/>
</g>
<g id="Connect__x2F__Statistic" class="st0">
	<line class="st7" x1="10.2" y1="15.8" x2="5" y2="27"/>
	<line class="st7" x1="19.3" y1="19" x2="12.7" y2="15"/>
	<line class="st7" x1="26.3" y1="6.8" x2="21.7" y2="18.1"/>
	<circle class="st7" cx="27" cy="5" r="2"/>
	<circle class="st7" cx="4" cy="28" r="2"/>
	<circle class="st7" cx="11" cy="14" r="2"/>
	<circle class="st7" cx="21" cy="20" r="2"/>
</g>
<g id="Mobile__x2F__Platform_copy_2" class="st0">
	<g class="st2">
		<path class="st3" d="M9,5c0-1.1,0.9-2,2-2h10c1.1,0,2,0.9,2,2v22c0,1.1-0.9,2-2,2H11c-1.1,0-2-0.9-2-2V5z"/>
	</g>
	<circle class="st1" cx="16" cy="26" r="1"/>
	<line class="st5" x1="9" y1="23" x2="23" y2="23"/>
	<line class="st5" x1="9" y1="7" x2="23" y2="7"/>
</g>
<g id="Desktop__x2F__Platform_copy" class="st0">
	<rect x="3" y="3" class="st4" width="26" height="21"/>
	<rect x="3" y="3" class="st4" width="26" height="17"/>
	<path class="st5" d="M11,29h10l-0.2-0.1c0,0,0,0,0,0c-1.3-1.3-2.5-0.9-2.5-4.9h-4.7c0,4-1.2,3.6-2.5,4.9c0,0,0,0,0,0L11,29z"/>
</g>
<g id="Match__x2F__Matching" class="st0">
	<path class="st10" d="M7.3,23.4c-1.7-2-2.7-4.6-2.7-7.4c0-5.4,3.8-10,8.9-11.2"/>
	<path class="st10" d="M24.7,8.6c1.7,2,2.7,4.6,2.7,7.4c0,5.4-3.8,10-8.9,11.2"/>
	<circle class="st1" cx="18.5" cy="4.5" r="1.3"/>
	<circle class="st1" cx="13.5" cy="27.5" r="1.3"/>
	<polyline class="st7" points="30,9 23.6,7.1 23,14 	"/>
	<polyline class="st7" points="9,18 8.4,24.9 2,23.6 	"/>
</g>
<g id="Power__x2F__A_x3B_ways_On" class="st0">
	<path class="st5" d="M20.8,6.7c3.5,1.8,6,5.4,6,9.6C26.7,22.2,21.9,27,16,27S5.3,22.2,5.3,16.3c0-4.2,2.4-7.8,6-9.6"/>
	<line class="st5" x1="16" y1="12" x2="16" y2="2"/>
</g>
<g id="Partnership__x2F__Link" class="st0">
	<path class="st6" d="M14.4,17.6c-1.9-1.9-1.9-4.6,0-6.5l5.7-5.7c1.9-1.9,4.6-1.9,6.5,0s1.9,4.6,0,6.5L22.5,16"/>
	<path class="st6" d="M17.6,14.4c1.9,1.9,1.9,4.6,0,6.5l-5.7,5.7c-1.9,1.9-4.6,1.9-6.5,0s-1.9-4.6,0-6.5L9.5,16"/>
</g>
<g id="Clock__x2F__Time__x2F__Today" class="st0">
	<circle class="st4" cx="16" cy="16" r="13"/>
	<polyline class="st5" points="16,8 16,16 21,21 	"/>
</g>
<g id="Add__x2F__Plus" class="st0">
	<circle class="st4" cx="16" cy="16" r="13"/>
	<line class="st5" x1="16" y1="10" x2="16" y2="22"/>
	<line class="st5" x1="22" y1="16" x2="10" y2="16"/>
</g>
<g id="Subtract" class="st0">
	<circle class="st4" cx="16" cy="16" r="13"/>
	<line class="st5" x1="22" y1="16" x2="10" y2="16"/>
</g>
<g id="Tick__x2F__Check" class="st0">
	<circle class="st4" cx="16" cy="16" r="13"/>
	<polyline class="st7" points="10,17 14,21 22,11 	"/>
</g>
<g id="Tick__x2F__Check_2" class="st0">
	<polyline class="st4" points="27,5 27,27 5,27 5,5 27,5 	"/>
	<polyline class="st7" points="10,16 14,20 22,10 	"/>
</g>
<g id="Heart__x2F__Love" class="st0">
	<path class="st4" d="M28,11.7v0.2c0,0.1,0,0.3,0,0.5c0,0.1,0,0.2,0,0.3C27.6,15.3,25.8,21.9,16,28C6,21.8,4.3,15.1,4.1,12.5
		c0-0.2,0-0.5,0-0.7c0-0.2,0-0.3,0-0.5C4.3,7.8,7.3,5,10.9,5c2,0,3.8,1.4,5.1,2.8C17.3,6.4,19.1,5,21.1,5C24.8,5,27.9,8,28,11.7z"/>
</g>
<g id="Search" class="st0">
	<circle class="st4" cx="17.8" cy="14.2" r="10.2"/>
	<line class="st5" x1="3" y1="29" x2="10.4" y2="21.6"/>
</g>
<g id="Mail" class="st0">
	<polyline class="st7" points="3,7 16,16 29,7 	"/>
	<rect x="3" y="7" class="st4" width="26" height="18"/>
</g>
<g id="Work" class="st0">
	<rect x="3" y="7" class="st4" width="26" height="18"/>
	<line class="st4" x1="7" y1="8" x2="7" y2="25"/>
	<line class="st4" x1="25" y1="8" x2="25" y2="25"/>
	<path class="st4" d="M12,7c0-2.2,1.8-4,4-4s4,1.8,4,4"/>
</g>
<g id="Profile" class="st0">
	<circle class="st4" cx="16" cy="8.8" r="5.8"/>
	<path class="st4" d="M3.5,27c0-6.3,5.6-11.5,12.5-11.5S28.5,20.7,28.5,27"/>
	<line class="st4" x1="28.5" y1="27" x2="3.5" y2="27"/>
</g>
<g id="Home" class="st0">
	<path class="st5" d="M28,17.3h-3.7V27h-5.5v-4.4c0-1.5-1.2-2.7-2.8-2.7s-2.8,1.2-2.8,2.7V27H7.7v-9.7H4L16,4L28,17.3z"/>
</g>
<g id="List" class="st0">
	<line class="st7" x1="6" y1="7" x2="26" y2="7"/>
	<line class="st7" x1="6" y1="25" x2="26" y2="25"/>
	<line class="st7" x1="6" y1="19" x2="26" y2="19"/>
	<line class="st7" x1="6" y1="13" x2="26" y2="13"/>
</g>
<g id="Push_Pin" class="st0">
	<path class="st4" d="M26,12c-0.5-5-4.8-9-10-9S6.5,7,6,12c0,0-1,9,10,17C27,21,26,12,26,12z M16,16c-1.7,0-3-1.3-3-3
		c0-0.4,0.1-0.7,0.2-1c0.4-1.2,1.5-2,2.8-2s2.4,0.8,2.8,2c0.1,0.3,0.2,0.6,0.2,1C19,14.7,17.7,16,16,16z"/>
</g>
<g id="Calibration__x2F__Settings" class="st0">
	<circle class="st11" cx="16" cy="20" r="2"/>
	<line class="st11" x1="16" y1="28" x2="16" y2="22"/>
	<line class="st11" x1="16" y1="19" x2="16" y2="4"/>
	<circle class="st11" cx="24" cy="11" r="2"/>
	<line class="st11" x1="24" y1="4" x2="24" y2="9"/>
	<line class="st11" x1="24" y1="12" x2="24" y2="28"/>
	<circle class="st11" cx="8" cy="11" r="2"/>
	<line class="st11" x1="8" y1="4" x2="8" y2="9"/>
	<line class="st11" x1="8" y1="12" x2="8" y2="28"/>
</g>
<g id="Star" class="st0">
	<polygon class="st4" points="21,18.5 24.4,29 16,22.5 7.6,29 11,18.5 3,12.3 13,12.3 16,3 19,12.3 29,12.3 	"/>
</g>
<g id="Edit" class="st0">
	<rect x="3.5" y="11.2" transform="matrix(0.7071 -0.7071 0.7071 0.7071 -5.3774 16.5178)" class="st4" width="27.6" height="7.1"/>
	<polyline class="st4" points="5,22 3,29 10,27 	"/>
	<line class="st4" x1="26" y1="10" x2="22" y2="6"/>
</g>
<g id="Broadcast__x2F__Live" class="st0">
	<path class="st7" d="M22.4,4.8C24,6.4,25,8.7,25,11.2s-1,4.7-2.6,6.4"/>
	<path class="st7" d="M9.6,17.5C8,15.9,7,13.7,7,11.2s1-4.7,2.6-6.4"/>
	<circle class="st7" cx="16" cy="11.2" r="2"/>
	<line class="st7" x1="16" y1="13.2" x2="16" y2="30"/>
	<path class="st7" d="M25.2,2c2.4,2.3,3.8,5.6,3.8,9.2s-1.5,6.8-3.8,9.2"/>
	<path class="st7" d="M6.8,20.4C4.5,18,3,14.8,3,11.2S4.5,4.3,6.8,2"/>
</g>
<g id="Chat__x2F__Support_copy" class="st0">
	<path class="st4" d="M29,16c0,7.2-5.8,13-13,13c-2.1,0-4.1-0.5-5.9-1.4L3,29l1.5-6.9C3.5,20.3,3,18.2,3,16C3,8.8,8.8,3,16,3
		S29,8.8,29,16z"/>
	<rect x="19" y="15" class="st1" width="2" height="2"/>
	<rect x="15" y="15" class="st1" width="2" height="2"/>
	<rect x="11" y="15" class="st1" width="2" height="2"/>
</g>
<g id="Secure" class="st0">
	<rect x="7" y="11" class="st4" width="18" height="17"/>
	<path class="st4" d="M10,10c0-3.3,2.7-6,6-6s6,2.7,6,6"/>
	<line class="st6" x1="16" y1="16" x2="16" y2="20"/>
</g>
</svg>
